# AST/ASF file generated using VICON BodyLanguage
# -----------------------------------------------
:version 1.10
:name VICON
:units
  mass 1.0
  length 0.45
  angle deg
:documentation
   .ast/.asf automatically generated from VICON data using
   VICON BodyBuilder and BodyLanguage model FoxedUp or BRILLIANT.MOD
:root
   order TX TY TZ RX RY RZ
   axis XYZ
   position 0 0 0  
   orientation 0 0 0 
:bonedata
  begin
     id 1 
     name lhipjoint
     direction 0.710087 -0.641647 0.289942 
     length 2.79038 
     axis 0 0 0  XYZ
  end
  begin
     id 2 
     name lfemur
     direction 0.34202 -0.939693 0  
     length 7.2706  
     axis 0 0 20  XYZ
    dof rx ry rz
    limits (-160.0 20.0)
           (-70.0 70.0)
           (-60.0 70.0)
  end
  begin
     id 3 
     name ltibia
     direction 0.34202 -0.939693 0   
     length 7.86328   
     axis 0 0 20   XYZ
    dof rx
    limits (-10.0 170.0)
  end
  begin
     id 4 
     name lfoot
     direction 0.0541246 -0.148706 0.987399   
     length 2.37542   
     axis -90 7.62852e-016 20   XYZ
    dof rx rz
    limits (-45.0 90.0)
           (-70.0 20.0)
  end
  begin
     id 5 
     name ltoes
     direction 1.53554e-011 -4.21866e-011 1   
     length 1.19593   
     axis -90 7.62852e-016 20   XYZ
    dof rx
    limits (-90.0 20.0)
  end
  begin
     id 6 
     name rhipjoint
     direction -0.675762 -0.671724 0.303533   
     length 2.66544  
     axis 0 0 0  XYZ 
  end
  begin
     id 7 
     name rfemur
     direction -0.34202 -0.939693 0   
     length 8.11844   
     axis 0 0 -20   XYZ
    dof rx ry rz
    limits (-160.0 20.0)
           (-70.0 70.0)
           (-70.0 60.0)
  end
  begin
     id 8 
     name rtibia
     direction -0.34202 -0.939693 0   
     length 7.97082   
     axis 0 0 -20   XYZ
    dof rx
    limits (-10.0 170.0)
 end
 begin
     id 9 
     name rfoot
     direction -0.0726228 -0.199474 0.977208   
     length 2.19677  
     axis -90 -7.62852e-016 -20   XYZ
    dof rx rz
    limits (-45.0 90.0)
           (-20.0 70.0)
  end
  begin
     id 10 
     name rtoes
     direction -1.53508e-011 -4.21913e-011 1   
     length 1.10438   
     axis -90 -7.62852e-016 -20   XYZ
    dof rx
    limits (-90.0 20.0)
  end
  begin
     id 11 
     name lowerback
     direction -0.00404436 0.999673 -0.0252643   
     length 2.03972   
     axis 0 0 0   XYZ
    dof rx ry rz
    limits (-20.0 45.0)
           (-30.0 30.0)
           (-30.0 30.0)
  end
  begin
     id 12 
     name upperback
     direction 0.00744643 0.999969 0.00242763   
     length 2.04273   
     axis 0 0 0   XYZ
    dof rx ry rz
    limits (-20.0 45.0)
           (-30.0 30.0)
           (-30.0 30.0)
  end
  begin
     id 13 
     name thorax
     direction 0.00846113 0.999862 0.0143204   
     length 2.03752   
     axis 0 0 0   XYZ
    dof rx ry rz
    limits (-20.0 45.0)
           (-30.0 30.0)
           (-30.0 30.0)
  end
  begin
     id 14 
     name lowerneck
     direction 0.0328213 0.990857 0.130862   
     length 1.37497   
     axis 0 0 0   XYZ
    dof rx ry rz
    limits (-20.0 45.0)
           (-30.0 30.0)
           (-30.0 30.0)
  end
  begin
     id 15 
     name upperneck
     direction -0.0302832 0.999496 0.00956452   
     length 1.35926   
     axis 0 0 0   XYZ
    dof rx ry rz
    limits (-20.0 45.0)
           (-30.0 30.0)
           (-30.0 30.0)
  end
  begin
     id 16
     name head
     direction -0.0130455 0.999856 -0.0108809  
     length 1.44454  
     axis 0 0 0   XYZ
    dof rx ry rz
    limits (-20.0 45.0)
           (-30.0 30.0)
           (-30.0 30.0)
  end
  begin
     id 17 
     name lclavicle
     direction 0.952957 0.278766 0.119006  
     length 3.10112  
     axis 0 0 0   XYZ
    dof ry rz
    limits (-20.0 10.0)
           (0.0 20.0)
  end
  begin
     id 18 
     name lhumerus
     direction 1 -4.48972e-011 -1.63238e-028   
     length 5.82845   
     axis -180 -30 -90   XYZ
    dof rx ry rz
    limits (-60.0 90.0)
           (-90.0 90.0)
           (-90.0 90.0)
  end
  begin
     id 19
     name lradius
     direction 1 -4.48959e-011 1.45401e-026   
     length 3.49691   
     axis -180 -30 -90   XYZ
    dof rx
    limits (-10.0 170.0)
  end
  begin
     id 20
     name lwrist
     direction 1 -4.48945e-011 2.98015e-026   
     length 1.74845   
     axis -1.7599e-014 90 90   XYZ
    dof ry
    limits (-180.0 0.0)
 end
  begin
     id 21 
     name lhand
     direction 1 -4.4902e-011 5.9603e-026   
     length 0.674998   
     axis -3.80318e-014 90 90   XYZ
    dof rx rz
    limits (-90.0 90.0)
           (-45.0 45.0)
  end
  begin
     id 22 
     name lfingers
     direction 1 -4.48979e-011 1.19206e-025   
     length 0.544201   
     axis -7.60636e-014 90 90   XYZ
    dof rx
    limits (0.0 90.0)
  end
  begin
     id 23
     name lthumb
     direction 0.707107 -6.34941e-011 0.707107   
     length 0.781367   
     axis -90 45 2.85299e-015   XYZ
    dof rx rz
    limits (-45.0 45.0)
           (-45.0 45.0)
  end
  begin
     id 24 
     name rclavicle
     direction -0.967632 0.241887 0.0719654   
     length 3.53012  
     axis 0 0 0   XYZ 
    dof ry rz
    limits (-10.0 20.0)
           (-20.0 0.0)
  end
  begin
     id 25 
     name rhumerus
     direction -1 -4.4897e-011 6.87619e-028  
     length 5.45859   
     axis -180 30 90   XYZ
    dof rx ry rz
    limits (-90.0 60.0)
           (-90.0 90.0)
           (-90.0 90.0)
  end
  begin
     id 26 
     name rradius
     direction -1 -4.48967e-011 1.68055e-026   
     length 3.58491   
     axis -180 30 90   XYZ
    dof rx
    limits (-10.0 170.0)
  end
  begin
     id 27 
     name rwrist
     direction -1 -4.48976e-011 2.98015e-026   
     length 1.79245   
     axis -1.7599e-014 -90 -90   XYZ
    dof ry
    limits (-180.0 0.0)
  end
  begin
     id 28
     name rhand
     direction -1 -4.48996e-011 5.9603e-026   
     length 0.683735   
     axis -3.80318e-014 -90 -90   XYZ
    dof rx rz
    limits (-90.0 90.0)
           (-45.0 45.0)
  end
  begin
     id 29
     name rfingers
     direction -1 -4.48924e-011 1.19206e-025   
     length 0.551245   
     axis -7.60636e-014 -90 -90   XYZ
    dof rx
    limits (0.0 90.0)
  end
  begin
     id 30
     name rthumb
     direction -0.707107 -6.3492e-011 0.707107   
     length 0.791481   
     axis -90 -45 -2.85299e-015   XYZ
    dof rx rz
    limits (-45.0 45.0)
           (-45.0 45.0)
  end
:hierarchy
  begin
    root lhipjoint rhipjoint lowerback
    lhipjoint lfemur
    lfemur ltibia
    ltibia lfoot
    lfoot ltoes
    rhipjoint rfemur
    rfemur rtibia
    rtibia rfoot
    rfoot rtoes
    lowerback upperback
    upperback thorax
    thorax lowerneck lclavicle rclavicle
    lowerneck upperneck
    upperneck head
    lclavicle lhumerus
    lhumerus lradius
    lradius lwrist
    lwrist lhand lthumb
    lhand lfingers
    rclavicle rhumerus
    rhumerus rradius
    rradius rwrist
    rwrist rhand rthumb
    rhand rfingers
  end

#!OML:ASF F:\VICON\USERDATA\INSTALL\rory3\rory3.ASF
:FULLY-SPECIFIED
:DEGREES
161
root -5.21896 18.0952 10.3736 -17.5566 -97.7209 11.477
lowerback 2.00908 -1.55606 -0.486538
upperback 0.90096 -2.09638 -0.851195
thorax -0.21748 -1.05216 -0.553132
lowerneck -17.3394 3.40559 5.37594
upperneck -0.993614 3.35222 -3.42267
head 2.90892 1.41803 -1.84579
rclavicle 2.5842e-015 6.36111e-015
rhumerus 35.4511 -41.3858 -14.3925
rradius 48.1135
rwrist -25.6032
rhand -17.0622 57.1594
rfingers 7.12502
rthumb 9.17533 27.379
lclavicle 2.5842e-015 6.36111e-015
lhumerus 14.4059 27.2567 5.9611
lradius 55.537
lwrist 47.3526
lhand 156.544 -121.74
lfingers 7.12502
lthumb -176.997 -451.781
rfemur -10.4051 5.71924 11.5791
rtibia 49.8048
rfoot -9.22868 -0.394713
rtoes -16.9507
lfemur 1.85575 -10.882 -10.6035
ltibia 28.2924
lfoot -4.38406 8.94039
ltoes -15.3279
162
root -5.16537 17.974 10.2631 -27.6085 -97.1678 21.4744
lowerback 2.28498 -1.61778 0.358792
upperback 0.841406 -2.16316 -0.90942
thorax -0.466633 -1.08427 -1.07384
lowerneck -16.4717 3.22303 5.66493
upperneck -2.49865 3.04143 -3.35769
head 2.21779 1.24578 -1.89873
rclavicle -1.63997e-014 1.59028e-015
rhumerus 37.7148 -42.4078 -15.6598
rradius 45.2478
rwrist -24.9217
rhand -16.632 55.7495
rfingers 7.12502
rthumb 9.59041 25.9878
lclavicle -1.63997e-014 1.59028e-015
lhumerus 15.7712 27.854 6.87916
lradius 54.0082
lwrist 46.7601
lhand 155.222 -121.426
lfingers 7.12502
lthumb -178.274 -451.453
rfemur -9.5003 5.50347 13.2611
rtibia 49.4184
rfoot -11.7004 -0.190123
rtoes -29.4718
lfemur 1.2167 -11.0741 -8.97668
ltibia 29.2891
lfoot -5.86368 8.52541
ltoes -19.4241
163
root -5.12112 17.855 10.1335 -39.0916 -96.9043 33.0145
lowerback 2.5169 -1.71416 1.041
upperback 0.682474 -2.27139 -0.742506
thorax -0.781085 -1.13963 -1.27068
lowerneck -17.0565 2.6964 5.02762
upperneck -2.85739 2.37887 -2.77163
head 2.13994 0.921149 -1.6331
rclavicle 3.38928e-014 6.36111e-015
rhumerus 40.8361 -43.367 -17.1724
rradius 42.3807
rwrist -25.2305
rhand -16.6312 54.5447
rfingers 7.12502
rthumb 9.59118 24.7831
lclavicle 3.38928e-014 6.36111e-015
lhumerus 17.3809 29.0094 8.3327
lradius 52.7446
lwrist 45.6137
lhand 155.177 -121.663
lfingers 7.12502
lthumb -178.318 -451.69
rfemur -8.74893 4.82377 14.964
rtibia 48.858
rfoot -14.0159 0.161371
rtoes -34.3739
lfemur 0.191765 -10.7045 -7.12587
ltibia 30.2887
lfoot -5.11092 8.79075
ltoes -34.4659
164
root -5.08903 17.7915 10.0047 -50.4417 -96.8297 44.6741
lowerback 2.48574 -1.92757 1.61681
upperback 0.437295 -2.53598 -0.525715
thorax -1.03793 -1.2752 -1.35722
lowerneck -17.4516 2.91054 7.68427
upperneck -2.917 2.17946 -4.84569
head 2.29049 0.723258 -2.85236
rclavicle 1.37658e-014 -3.18055e-015
rhumerus 45.3941 -44.4318 -20.0213
rradius 39.5819
rwrist -25.3957
rhand -16.7933 53.9483
rfingers 7.12502
rthumb 9.43481 24.1794
lclavicle 1.37658e-014 -3.18055e-015
lhumerus 18.5036 30.0413 8.87295
lradius 51.9232
lwrist 45.1417
lhand 154.35 -121.789
lfingers 7.12502
lthumb -179.116 -451.812
rfemur -8.21028 3.99617 16.4852
rtibia 48.1085
rfoot -16.3008 1.45544
rtoes -29.7966
lfemur -0.994688 -11.0232 -5.4108
ltibia 31.1816
lfoot -5.1122 8.83418
ltoes -39.9628
165
root -5.04915 17.7612 9.87788 -57.6566 -96.5996 52.2086
lowerback 2.4651 -2.02867 1.40605
upperback 0.242423 -2.67311 -0.400971
thorax -1.21548 -1.34454 -1.10317
lowerneck -17.6323 2.75884 6.38286
upperneck -3.46476 2.15314 -3.97119
head 2.08099 0.730139 -2.30216
rclavicle 1.50082e-014 -7.15625e-015
rhumerus 50.3221 -45.6219 -22.8948
rradius 36.7545
rwrist -24.8889
rhand -17.1536 53.9626
rfingers 7.12502
rthumb 9.08709 24.1784
lclavicle 1.50082e-014 -7.15625e-015
lhumerus 19.3659 30.8756 8.49754
lradius 51.5763
lwrist 44.7048
lhand 154.433 -121.598
lfingers 7.12502
lthumb -179.036 -451.621
rfemur -7.90923 3.03232 17.3488
rtibia 47.2303
rfoot -18.2134 2.4592
rtoes -22.2081
lfemur -2.16233 -11.9642 -4.44686
ltibia 32.1708
lfoot -6.61361 8.698
ltoes -34.81
166
root -5.00361 17.7491 9.75871 -61.0886 -96.1725 55.7395
lowerback 2.62515 -2.00109 0.734063
upperback 0.118349 -2.65358 -0.428783
thorax -1.40244 -1.33226 -0.748363
lowerneck -18.7118 2.45312 4.96125
upperneck -3.10102 1.95383 -3.50808
head 2.35031 0.646885 -1.9033
rclavicle 3.06625e-014 1.11319e-014
rhumerus 54.5113 -46.6433 -25.0749
rradius 34.7215
rwrist -24.1624
rhand -17.4693 53.8638
rfingers 7.12502
rthumb 8.78246 24.0666
lclavicle 3.06625e-014 1.11319e-014
lhumerus 21.262 32.1118 9.91575
lradius 51.1963
lwrist 42.797
lhand 154.65 -121.847
lfingers 7.12502
lthumb -178.827 -451.871
rfemur -7.52227 2.21129 17.7745
rtibia 46.418
rfoot -19.7341 2.20813
rtoes -18.9005
lfemur -2.80793 -12.8699 -4.16314
ltibia 32.5595
lfoot -6.88873 8.75617
ltoes -31.3306
